# xmcd
#
# Track frame offsets: 
#        150
#        15268
#        39479
#        58778
#        72339
#        97260
#        121459
#        140535
#        161390
#        179147
#        199773
#        217015
#
# Disc length: 3260 seconds
#
# Revision: 0
# Processed by: cddbd v1.5.2PL0 Copyright (c) Steve Scherf et al.
# Submitted via: ExactAudioCopy v0.95b4
#
DISCID=b40cba0c
DTITLE=Rene and Angela - Classic Masters
DYEAR=2002
DGENRE=R&B
TTITLE0=Do You Really Love Me
TTITLE1=Everything We Do
TTITLE2=Turn It Out
TTITLE3=Strangers Again
TTITLE4=I Love You More
TTITLE5=Wall To Wall
TTITLE6=Secret Rendezvous
TTITLE7=Imaginary Playmates
TTITLE8=Bangin' The Boogie
TTITLE9=My First Love
TTITLE10=Can't Give You Up
TTITLE11=Keep Runnin'
EXTD=
EXTT0=
EXTT1=
EXTT2=
EXTT3=
EXTT4=
EXTT5=
EXTT6=
EXTT7=
EXTT8=
EXTT9=
EXTT10=
EXTT11=
PLAYORDER=
